<svg width="80" height="24" viewBox="0 0 80 24" fill="none" xmlns="http://www.w3.org/2000/svg">
<rect width="60" height="24" fill="#FF61B0"/>
<path d="M60 0L80 11.4L60 24V0Z" fill="#FF61B0"/>
<path d="M18.85 17H17.6V15.75V14.5V13.25H16.35H15.1H13.85V14.5V15.75V17H12.6H11.35V15.75V14.5V13.25V12V10.75V9.5V8.25H12.6V7H13.85V5.75H15.1H16.35H17.6V7H18.85V8.25H20.1V9.5V10.75V12V13.25V14.5V15.75V17H18.85ZM16.35 10.75H17.6V9.5H16.35V8.25H15.1V9.5H13.85V10.75H15.1H16.35ZM28.8 17H27.55H26.3H25.05H23.8V15.75H22.55V14.5V13.25V12V10.75V9.5V8.25V7V5.75H23.8H25.05V7V8.25V9.5V10.75V12V13.25V14.5H26.3H27.55H28.8V13.25V12V10.75V9.5V8.25V7V5.75H30.05H31.3V7V8.25V9.5V10.75V12V13.25V14.5V15.75H30.05V17H28.8ZM40 17H38.75H37.5H36.25H35H33.75V15.75V14.5V13.25V12V10.75V9.5V8.25V7V5.75H35H36.25H37.5H38.75H40H41.25V7H42.5V8.25V9.5V10.75V12V13.25V14.5V15.75H41.25V17H40ZM38.75 14.5H40V13.25V12V10.75V9.5V8.25H38.75H37.5H36.25V9.5V10.75V12V13.25V14.5H37.5H38.75ZM51.2 17H49.95H48.7H47.45H46.2H44.95V15.75V14.5H46.2H47.45V13.25V12V10.75V9.5V8.25H46.2H44.95V7V5.75H46.2H47.45H48.7H49.95H51.2H52.45V7V8.25H51.2H49.95V9.5V10.75V12V13.25V14.5H51.2H52.45V15.75V17H51.2ZM58.65 17H57.4V15.75V14.5V13.25V12V10.75V9.5V8.25H56.15H54.9V7V5.75H56.15H57.4H58.65H59.9H61.15H62.4V7V8.25H61.15H59.9V9.5V10.75V12V13.25V14.5V15.75V17H58.65Z" fill="white"/>
</svg>
