<svg width="145" height="34" viewBox="0 0 145 34" fill="none" xmlns="http://www.w3.org/2000/svg">
<g clip-path="url(#clip0_1447_399)">
<mask id="mask0_1447_399" style="mask-type:luminance" maskUnits="userSpaceOnUse" x="0" y="0" width="145" height="34">
<path d="M144.949 0H0V34H144.949V0Z" fill="white"/>
</mask>
<g mask="url(#mask0_1447_399)">
<path d="M47.5945 19.7626C48.0295 19.7626 48.3537 19.6436 48.5669 19.4056C48.7801 19.1676 48.8825 18.8191 48.8825 18.3601H51.8593L51.8763 18.4196C51.9019 19.5501 51.5096 20.4766 50.6907 21.1906C49.8804 21.9046 48.8398 22.2616 47.5775 22.2616C45.9995 22.2616 44.7713 21.7686 43.9184 20.7911C43.0569 19.8136 42.6304 18.5386 42.6304 16.9746V16.7536C42.6304 15.1981 43.0569 13.9231 43.9098 12.9456C44.7628 11.9596 45.974 11.4666 47.5434 11.4666C48.8654 11.4666 49.9231 11.8321 50.7163 12.5716C51.5095 13.3111 51.8934 14.3141 51.8678 15.5806L51.8507 15.6401H48.874C48.874 15.1471 48.7631 14.7476 48.5498 14.4331C48.3281 14.1186 48.004 13.9656 47.5604 13.9656C46.9463 13.9656 46.5113 14.2206 46.264 14.7221C46.0166 15.2321 45.8887 15.9036 45.8887 16.7536V16.9746C45.8887 17.8501 46.0166 18.5301 46.264 19.0231C46.5113 19.5161 46.9548 19.7626 47.586 19.7626H47.5945Z" fill="white"/>
<path d="M59.1175 14.5181H57.9319C57.5566 14.5096 57.2496 14.5691 57.0193 14.6966C56.7805 14.8241 56.6014 15.0026 56.4905 15.2321V22.0576H53.2322V11.6536H56.3028L56.4222 13.1836C56.644 12.6396 56.934 12.2146 57.2922 11.9171C57.6505 11.6196 58.0769 11.4666 58.5546 11.4666C58.7081 11.4666 58.8702 11.4751 59.0237 11.5006C59.1858 11.5261 59.3222 11.5516 59.4502 11.5856L59.1346 14.5266L59.1175 14.5181Z" fill="white"/>
<path d="M65.3103 17.476V17.5525H65.3785L67.1015 11.662H70.5729L66.4191 23.613C66.095 24.378 65.6856 25.0155 65.1738 25.517C64.6621 26.0185 63.8603 26.265 62.7515 26.265C62.47 26.265 62.2397 26.248 62.0606 26.214C61.8815 26.18 61.6 26.112 61.2076 26.0185L61.6 23.7065C61.6938 23.7235 61.7535 23.7405 61.8047 23.749C61.8473 23.7575 61.9071 23.766 61.9753 23.766C62.4871 23.766 62.8623 23.6895 63.1012 23.5365C63.34 23.3835 63.5191 23.154 63.63 22.8565L63.8944 22.1765L60.2865 11.662H63.7494L65.3018 17.476H65.3103Z" fill="white"/>
<path d="M81.0893 17.0766C81.0893 18.6406 80.7396 19.8986 80.0317 20.8421C79.3237 21.7856 78.3258 22.2616 77.0378 22.2616C76.5346 22.2616 76.0911 22.1681 75.6987 21.9726C75.3064 21.7771 74.9737 21.5051 74.6837 21.1396V26.0611H71.4255V11.6536H74.4705L74.5899 12.8011C74.8884 12.3761 75.2296 12.0446 75.6305 11.8151C76.0314 11.5856 76.492 11.4666 77.0208 11.4666C78.3172 11.4666 79.3152 11.9596 80.0231 12.9541C80.7311 13.9486 81.0893 15.2576 81.0893 16.8726V17.0766ZM77.8396 16.8726C77.8396 15.9971 77.7117 15.2916 77.4558 14.7561C77.1999 14.2206 76.7905 13.9571 76.219 13.9571C75.8522 13.9571 75.5452 14.0251 75.2893 14.1611C75.0334 14.2971 74.8372 14.4926 74.6837 14.7476V19.0911C74.8372 19.3121 75.0419 19.4821 75.2978 19.5926C75.5537 19.7031 75.8693 19.7541 76.2361 19.7541C76.8075 19.7541 77.2169 19.5161 77.4643 19.0486C77.7117 18.5811 77.8396 17.9181 77.8396 17.0766V16.8726Z" fill="white"/>
<path d="M86.3867 9.06946V11.6535H88.1523V13.906H86.3867V18.6745C86.3867 19.0485 86.4635 19.312 86.617 19.4735C86.7705 19.635 86.9752 19.72 87.2311 19.72C87.4358 19.72 87.5979 19.72 87.7173 19.703C87.8367 19.6945 87.9902 19.6605 88.1779 19.6265L88.4082 22.032C88.05 22.117 87.7258 22.1765 87.4358 22.2105C87.1458 22.2445 86.8047 22.2615 86.4123 22.2615C85.3376 22.2615 84.527 21.9725 83.9726 21.403C83.4182 20.8335 83.1453 19.9325 83.1453 18.6915V13.906H81.6782V11.6535H83.1453V9.06946H86.3952H86.3867Z" fill="white"/>
<path d="M88.9626 16.762C88.9626 15.198 89.4061 13.923 90.2932 12.937C91.1803 11.951 92.417 11.458 94.0035 11.458C95.59 11.458 96.8353 11.951 97.7309 12.937C98.6179 13.923 99.0614 15.198 99.0614 16.762V16.966C99.0614 18.5385 98.6179 19.8135 97.7309 20.791C96.8438 21.7685 95.607 22.2615 94.0291 22.2615C92.4511 22.2615 91.1803 21.7685 90.2932 20.791C89.4061 19.8135 88.9626 18.5385 88.9626 16.966V16.762ZM92.2209 16.966C92.2209 17.8415 92.3573 18.5215 92.6303 19.0145C92.9032 19.5075 93.3723 19.7625 94.0206 19.7625C94.6688 19.7625 95.1123 19.516 95.3938 19.0145C95.6667 18.513 95.8117 17.833 95.8117 16.966V16.762C95.8117 15.912 95.6753 15.2405 95.3938 14.7305C95.1209 14.2205 94.6517 13.9655 94.0035 13.9655C93.3553 13.9655 92.9032 14.2205 92.6303 14.7305C92.3573 15.2405 92.2209 15.9205 92.2209 16.762V16.966Z" fill="white"/>
<path d="M103.497 11.6536L103.625 13.1156C103.966 12.5971 104.384 12.1891 104.887 11.9001C105.39 11.6111 105.945 11.4666 106.567 11.4666C107.591 11.4666 108.393 11.7981 108.964 12.4526C109.536 13.1156 109.826 14.1611 109.826 15.6061V22.0576H106.567V15.5976C106.567 15.0026 106.439 14.5776 106.192 14.3311C105.945 14.0846 105.578 13.9571 105.1 13.9571C104.802 13.9571 104.529 14.0081 104.298 14.1186C104.06 14.2291 103.863 14.3821 103.693 14.5691V22.0491H100.443V11.6536H103.497Z" fill="white"/>
<path d="M116.368 22.2615C114.832 22.2615 113.604 21.777 112.691 20.8165C111.779 19.856 111.318 18.649 111.318 17.204V16.8385C111.318 15.2575 111.736 13.9655 112.563 12.9625C113.399 11.9595 114.585 11.458 116.137 11.4665C117.553 11.4665 118.662 11.8915 119.464 12.733C120.266 13.583 120.666 14.722 120.666 16.1755V17.8755H114.704L114.687 17.935C114.756 18.4705 114.977 18.904 115.344 19.244C115.711 19.584 116.197 19.7625 116.811 19.7625C117.425 19.7625 117.92 19.7115 118.295 19.618C118.671 19.5245 119.131 19.3545 119.703 19.1165L120.47 21.097C120.01 21.4285 119.421 21.709 118.696 21.93C117.971 22.151 117.195 22.2615 116.368 22.2615ZM116.137 13.9655C115.668 13.9655 115.319 14.1355 115.08 14.467C114.841 14.7985 114.704 15.249 114.653 15.8015L114.679 15.8525H117.485V15.606C117.485 15.079 117.374 14.6795 117.161 14.399C116.939 14.1185 116.598 13.974 116.137 13.974V13.9655Z" fill="white"/>
<path d="M131.003 17.6885H131.063L132.189 11.662H135.2L132.752 22.066H129.997L128.299 16.5495H128.24L126.534 22.066H123.787L121.331 11.662H124.342L125.493 17.7395H125.553L127.25 11.662H129.306L131.02 17.6885H131.003Z" fill="white"/>
<path d="M141.811 19.1335C141.811 18.8785 141.666 18.649 141.376 18.445C141.086 18.241 140.548 18.0625 139.781 17.901C138.561 17.663 137.648 17.2975 137.034 16.796C136.42 16.2945 136.105 15.6145 136.105 14.7475C136.105 13.8295 136.488 13.056 137.265 12.4185C138.032 11.781 139.081 11.458 140.403 11.458C141.794 11.458 142.894 11.764 143.721 12.3845C144.54 13.005 144.933 13.804 144.898 14.7815L144.881 14.841H141.717C141.717 14.433 141.615 14.1185 141.401 13.906C141.188 13.6935 140.856 13.5915 140.395 13.5915C140.054 13.5915 139.764 13.685 139.533 13.872C139.303 14.059 139.184 14.297 139.184 14.586C139.184 14.875 139.32 15.096 139.585 15.2915C139.849 15.487 140.386 15.657 141.197 15.81C142.468 16.0565 143.414 16.4305 144.028 16.932C144.643 17.425 144.95 18.1305 144.95 19.04C144.95 19.9495 144.532 20.7485 143.704 21.352C142.868 21.9555 141.768 22.2615 140.403 22.2615C139.039 22.2615 137.862 21.9045 137.034 21.182C136.207 20.468 135.815 19.6605 135.849 18.7765L135.866 18.717H138.817C138.826 19.21 138.979 19.567 139.269 19.788C139.559 20.009 139.96 20.111 140.489 20.111C140.924 20.111 141.256 20.026 141.478 19.856C141.7 19.686 141.819 19.448 141.819 19.1335H141.811Z" fill="white"/>
<path d="M25.5853 17.0012L17.0571 25.4999L25.5853 33.9987L34.1134 25.4999L25.5853 17.0012Z" fill="#351774"/>
<path d="M25.5882 0H8.52942L17.0588 8.5L25.5882 17L34.1177 8.5L25.5882 0Z" fill="#DA5991"/>
<path d="M17.0588 25.5L8.52941 17L0 25.5L8.52941 34H25.5882L17.0588 25.5Z" fill="#591C7E"/>
<path d="M8.52941 0L0 8.5V25.5L8.52941 17L17.0588 8.5L8.52941 0Z" fill="#A72E83"/>
</g>
</g>
<defs>
<clipPath id="clip0_1447_399">
<rect width="145" height="34" fill="white"/>
</clipPath>
</defs>
</svg>
