<svg width="32" height="32" viewBox="0 0 32 32" fill="none" xmlns="http://www.w3.org/2000/svg">
<path d="M4.14357 5.28133C4.13732 4.73758 4.14357 4.25008 4.15607 4.20633C4.18107 4.14383 4.41857 4.13133 6.28107 4.15008L4.18732 4.18758L4.16232 6.28133L4.14357 5.28133Z" fill="white" fill-opacity="0.2"/>
<path d="M14.0936 4.16883C13.8186 4.18133 13.3561 4.18133 13.0623 4.16883C12.7686 4.16258 12.9936 4.15008 13.5623 4.15008C14.1311 4.15008 14.3686 4.16258 14.0936 4.16883Z" fill="white" fill-opacity="0.2"/>
<path d="M18.9686 4.16883C18.6936 4.18133 18.2311 4.18133 17.9373 4.16883C17.6436 4.16258 17.8686 4.15008 18.4373 4.15008C19.0061 4.15008 19.2436 4.16258 18.9686 4.16883Z" fill="white" fill-opacity="0.2"/>
<path d="M27.8123 4.18758L26.7686 4.16883L25.7186 4.15008L27.8436 4.15633L27.8498 6.21883L27.8123 4.18758Z" fill="white" fill-opacity="0.2"/>
<path d="M4.17482 14.7501C4.16232 15.0438 4.15607 14.8188 4.15607 14.2501C4.15607 13.6813 4.16232 13.4438 4.17482 13.7188C4.18732 13.9938 4.18732 14.4563 4.17482 14.7501Z" fill="white" fill-opacity="0.2"/>
<path d="M27.8623 14.7501C27.8498 15.0438 27.8436 14.8188 27.8436 14.2501C27.8436 13.6813 27.8498 13.4438 27.8623 13.7188C27.8748 13.9938 27.8748 14.4563 27.8623 14.7501Z" fill="white" fill-opacity="0.2"/>
<path d="M4.16232 27.8438L4.15607 26.7813V25.7188L4.19357 27.8126L6.22482 27.8501L4.16232 27.8438Z" fill="white" fill-opacity="0.2"/>
<path d="M27.8123 27.8126L27.8248 26.7688L27.8436 25.7188L27.8623 26.7188C27.8686 27.2688 27.8623 27.7563 27.8436 27.8001C27.8186 27.8563 27.5561 27.8751 25.7186 27.8501L27.8123 27.8126Z" fill="white" fill-opacity="0.2"/>
<path d="M14.0873 27.8626C13.8123 27.8751 13.3498 27.8751 13.0561 27.8626C12.7686 27.8501 12.9936 27.8438 13.5561 27.8438C14.1248 27.8438 14.3623 27.8501 14.0873 27.8626Z" fill="white" fill-opacity="0.2"/>
<path d="M18.9623 27.8626C18.6873 27.8751 18.2248 27.8751 17.9311 27.8626C17.6436 27.8501 17.8686 27.8438 18.4311 27.8438C18.9998 27.8438 19.2373 27.8501 18.9623 27.8626Z" fill="white" fill-opacity="0.2"/>
<path d="M9.4374 2.10615C8.86865 2.11865 7.9249 2.11865 7.34365 2.10615C6.7624 2.0999 7.2249 2.0874 8.3749 2.0874C9.5249 2.0874 10.0062 2.0999 9.4374 2.10615Z" fill="white" fill-opacity="0.6"/>
<path d="M16.6874 2.10615C16.2937 2.11865 15.6624 2.11865 15.2812 2.10615C14.8999 2.0999 15.2249 2.0874 15.9999 2.0874C16.7749 2.0874 17.0812 2.0999 16.6874 2.10615Z" fill="white" fill-opacity="0.6"/>
<path d="M24.6874 2.10615C24.1187 2.11865 23.1812 2.11865 22.5937 2.10615C22.0062 2.0999 22.4749 2.0874 23.6249 2.0874C24.7749 2.0874 25.2562 2.0999 24.6874 2.10615Z" fill="white" fill-opacity="0.6"/>
<path d="M2.10615 9.4374C2.0999 10.0062 2.0874 9.5249 2.0874 8.3749C2.0874 7.2249 2.0999 6.7624 2.10615 7.34365C2.11865 7.9249 2.11865 8.86865 2.10615 9.4374Z" fill="white" fill-opacity="0.6"/>
<path d="M29.9187 9.4374C29.9124 10.0062 29.8999 9.5249 29.8999 8.3749C29.8999 7.2249 29.9124 6.7624 29.9187 7.34365C29.9312 7.9249 29.9312 8.86865 29.9187 9.4374Z" fill="white" fill-opacity="0.6"/>
<path d="M2.10615 24.6874C2.0999 25.2562 2.0874 24.7749 2.0874 23.6249C2.0874 22.4749 2.0999 22.0062 2.10615 22.5937C2.11865 23.1812 2.11865 24.1187 2.10615 24.6874Z" fill="white" fill-opacity="0.6"/>
<path d="M29.9187 24.6874C29.9124 25.2562 29.8999 24.7749 29.8999 23.6249C29.8999 22.4749 29.9124 22.0062 29.9187 22.5937C29.9312 23.1812 29.9312 24.1187 29.9187 24.6874Z" fill="white" fill-opacity="0.6"/>
<path d="M9.4374 29.9187C8.86865 29.9312 7.9249 29.9312 7.34365 29.9187C6.7624 29.9124 7.2249 29.8999 8.3749 29.8999C9.5249 29.8999 10.0062 29.9124 9.4374 29.9187Z" fill="white" fill-opacity="0.6"/>
<path d="M16.6874 29.9187C16.2937 29.9312 15.6624 29.9312 15.2812 29.9187C14.8999 29.9124 15.2249 29.8999 15.9999 29.8999C16.7749 29.8999 17.0812 29.9124 16.6874 29.9187Z" fill="white" fill-opacity="0.6"/>
<path d="M24.6874 29.9187C24.1187 29.9312 23.1812 29.9312 22.5937 29.9187C22.0062 29.9124 22.4749 29.8999 23.6249 29.8999C24.7749 29.8999 25.2562 29.9124 24.6874 29.9187Z" fill="white" fill-opacity="0.6"/>
<path d="M6.29389 3.62494C6.28764 3.91869 6.27514 3.69369 6.27514 3.12494C6.27514 2.55619 6.28764 2.31869 6.29389 2.59369C6.30639 2.86869 6.30639 3.33119 6.29389 3.62494Z" fill="white" fill-opacity="0.8"/>
<path d="M25.7314 3.62494C25.7251 3.91869 25.7126 3.69369 25.7126 3.12494C25.7126 2.55619 25.7251 2.31869 25.7314 2.59369C25.7439 2.86869 25.7439 3.33119 25.7314 3.62494Z" fill="white" fill-opacity="0.8"/>
<path d="M3.65639 6.29369C3.38139 6.30619 2.91889 6.30619 2.62514 6.29369C2.33139 6.28744 2.55639 6.27494 3.12514 6.27494C3.69389 6.27494 3.93139 6.28744 3.65639 6.29369Z" fill="white" fill-opacity="0.8"/>
<path d="M29.4064 6.29369C29.1314 6.30619 28.6689 6.30619 28.3751 6.29369C28.0814 6.28744 28.3064 6.27494 28.8751 6.27494C29.4439 6.27494 29.6814 6.28744 29.4064 6.29369Z" fill="white" fill-opacity="0.8"/>
<path d="M3.65639 25.7312C3.38139 25.7437 2.91889 25.7437 2.62514 25.7312C2.33139 25.7249 2.55639 25.7124 3.12514 25.7124C3.69389 25.7124 3.93139 25.7249 3.65639 25.7312Z" fill="white" fill-opacity="0.8"/>
<path d="M29.4064 25.7312C29.1314 25.7437 28.6689 25.7437 28.3751 25.7312C28.0814 25.7249 28.3064 25.7124 28.8751 25.7124C29.4439 25.7124 29.6814 25.7249 29.4064 25.7312Z" fill="white" fill-opacity="0.8"/>
<path d="M6.29389 29.3749C6.28764 29.6687 6.27514 29.4437 6.27514 28.8749C6.27514 28.3062 6.28764 28.0687 6.29389 28.3437C6.30639 28.6187 6.30639 29.0812 6.29389 29.3749Z" fill="white" fill-opacity="0.8"/>
<path d="M25.7314 29.3749C25.7251 29.6687 25.7126 29.4437 25.7126 28.8749C25.7126 28.3062 25.7251 28.0687 25.7314 28.3437C25.7439 28.6187 25.7439 29.0812 25.7314 29.3749Z" fill="white" fill-opacity="0.8"/>
<path d="M10.4375 2.125V1.0625V0H14.5625V2.0625H12.5V4.125L10.4062 4.15625L10.375 8.3125H8.3125V15.25H4.1875V13.1875H0V10.4375H2.125V6.3125H4.1875V4.1875H6.3125V2.125H10.4375Z" fill="white"/>
<path d="M17.4375 2.0625V1.03125V0H21.5625V2.125H25.6875V4.1875H27.8125V6.3125H29.875V10.4375H32V13.1875H27.8125V15.25H23.6875V8.3125H21.625L21.5938 4.15625L19.5 4.125V2.0625H17.4375Z" fill="white"/>
<path d="M14.625 4.1875V3.15625V2.125H17.375V4.1875H19.4375V8.375H21.5625V17.375H10.4375V8.375H12.5625V4.1875H14.625Z" fill="white"/>
<path d="M0 21.5625V18.4375V15.3125H4.125V17.4375H8.3125V23.6875H10.375L10.4062 27.8438L12.5 27.875V29.9375H14.5625V32H10.4375V29.875H6.3125V27.8125H4.1875V25.6875H2.125V21.5625H0Z" fill="white"/>
<path d="M27.875 17.4375V16.375V15.3125H32V21.5625H29.875V25.6875H27.8125V27.8125H25.6875V29.875H21.5625V32H17.4375V29.9375H19.5V27.875L21.5938 27.8438L21.625 23.6875H23.6875V17.4375H27.875Z" fill="white"/>
<path d="M10.4375 23.625V21.5625V19.5H21.5625V23.625H19.4375V27.8125H17.375V29.875H14.625V27.8125H12.5625V23.625H10.4375Z" fill="white"/>
<path d="M12.0312 4.16865C11.7562 4.18115 11.2749 4.18115 10.9687 4.16865C10.6624 4.1624 10.8874 4.1499 11.4687 4.1499C12.0499 4.1499 12.3062 4.1624 12.0312 4.16865Z" fill="white" fill-opacity="0.8"/>
<path d="M21.0937 4.16865C20.8187 4.18115 20.3374 4.18115 20.0312 4.16865C19.7249 4.1624 19.9437 4.1499 20.5312 4.1499C21.1187 4.1499 21.3687 4.1624 21.0937 4.16865Z" fill="white" fill-opacity="0.8"/>
<path d="M4.16865 16.9062C4.1624 17.1812 4.1499 16.9249 4.1499 16.3437C4.1499 15.7562 4.1624 15.5312 4.16865 15.8437C4.18115 16.1499 4.18115 16.6312 4.16865 16.9062Z" fill="white" fill-opacity="0.8"/>
<path d="M27.8562 16.9062C27.8499 17.1812 27.8374 16.9249 27.8374 16.3437C27.8374 15.7562 27.8499 15.5312 27.8562 15.8437C27.8687 16.1499 27.8687 16.6312 27.8562 16.9062Z" fill="white" fill-opacity="0.8"/>
<path d="M12.0312 27.8562C11.7562 27.8687 11.2749 27.8687 10.9687 27.8562C10.6562 27.8499 10.8812 27.8374 11.4687 27.8374C12.0499 27.8374 12.3062 27.8499 12.0312 27.8562Z" fill="white" fill-opacity="0.8"/>
<path d="M21.0937 27.8562C20.8187 27.8687 20.3374 27.8687 20.0312 27.8562C19.7187 27.8499 19.9437 27.8374 20.5312 27.8374C21.1124 27.8374 21.3687 27.8499 21.0937 27.8562Z" fill="white" fill-opacity="0.8"/>
<path d="M14.6063 1.59378C14.6001 1.86878 14.5876 1.61878 14.5876 1.03128C14.5876 0.443782 14.6001 0.218782 14.6063 0.531282C14.6188 0.843782 14.6188 1.31878 14.6063 1.59378Z" fill="white" fill-opacity="0.8"/>
<path d="M17.4188 1.59378C17.4126 1.86878 17.4001 1.61878 17.4001 1.03128C17.4001 0.443782 17.4126 0.218782 17.4188 0.531282C17.4313 0.843782 17.4313 1.31878 17.4188 1.59378Z" fill="white" fill-opacity="0.8"/>
<path d="M7.31259 17.4188C6.74384 17.4313 5.80009 17.4313 5.21884 17.4188C4.63759 17.4125 5.10009 17.4 6.25009 17.4C7.40009 17.4 7.88134 17.4125 7.31259 17.4188Z" fill="white" fill-opacity="0.8"/>
<path d="M26.8126 17.4188C26.2438 17.4313 25.3063 17.4313 24.7188 17.4188C24.1313 17.4125 24.6001 17.4 25.7501 17.4C26.9001 17.4 27.3813 17.4125 26.8126 17.4188Z" fill="white" fill-opacity="0.8"/>
<path d="M14.6063 31.5313C14.6001 31.8063 14.5876 31.5563 14.5876 30.9688C14.5876 30.3813 14.6001 30.1625 14.6063 30.4688C14.6188 30.775 14.6188 31.2563 14.6063 31.5313Z" fill="white" fill-opacity="0.8"/>
<path d="M17.4188 31.5313C17.4126 31.8063 17.4001 31.5563 17.4001 30.9688C17.4001 30.3813 17.4126 30.1625 17.4188 30.4688C17.4313 30.775 17.4313 31.2563 17.4188 31.5313Z" fill="white" fill-opacity="0.8"/>
<path d="M12.5437 3.71878C12.5374 3.99378 12.5249 3.74378 12.5249 3.15628C12.5249 2.56878 12.5374 2.34378 12.5437 2.65628C12.5562 2.96878 12.5562 3.44378 12.5437 3.71878Z" fill="white" fill-opacity="0.3"/>
<path d="M19.4812 3.71878C19.4749 3.99378 19.4624 3.74378 19.4624 3.15628C19.4624 2.56878 19.4749 2.34378 19.4812 2.65628C19.4937 2.96878 19.4937 3.44378 19.4812 3.71878Z" fill="white" fill-opacity="0.3"/>
<path d="M18.7812 19.4813C17.2374 19.4938 14.7187 19.4938 13.1874 19.4813C11.6562 19.475 12.9249 19.4688 15.9999 19.4688C19.0749 19.4688 20.3312 19.475 18.7812 19.4813Z" fill="white" fill-opacity="0.3"/>
<path d="M12.5437 29.4063C12.5374 29.6813 12.5249 29.4313 12.5249 28.8438C12.5249 28.2563 12.5374 28.0375 12.5437 28.3438C12.5562 28.65 12.5562 29.1313 12.5437 29.4063Z" fill="white" fill-opacity="0.3"/>
<path d="M19.4812 29.4063C19.4749 29.6813 19.4624 29.4313 19.4624 28.8438C19.4624 28.2563 19.4749 28.0375 19.4812 28.3438C19.4937 28.65 19.4937 29.1313 19.4812 29.4063Z" fill="white" fill-opacity="0.3"/>
<path d="M14.6064 3.62494C14.6001 3.91869 14.5876 3.69369 14.5876 3.12494C14.5876 2.55619 14.6001 2.31869 14.6064 2.59369C14.6189 2.86869 14.6189 3.33119 14.6064 3.62494Z" fill="white" fill-opacity="0.3"/>
<path d="M17.4189 3.62494C17.4126 3.91869 17.4001 3.69369 17.4001 3.12494C17.4001 2.55619 17.4126 2.31869 17.4189 2.59369C17.4314 2.86869 17.4314 3.33119 17.4189 3.62494Z" fill="white" fill-opacity="0.3"/>
<path d="M18.7814 17.4187C17.2376 17.4312 14.7189 17.4312 13.1876 17.4187C11.6564 17.4124 12.9251 17.4062 16.0001 17.4062C19.0751 17.4062 20.3314 17.4124 18.7814 17.4187Z" fill="white" fill-opacity="0.3"/>
<path d="M14.6064 29.3749C14.6001 29.6687 14.5876 29.4437 14.5876 28.8749C14.5876 28.3062 14.6001 28.0687 14.6064 28.3437C14.6189 28.6187 14.6189 29.0812 14.6064 29.3749Z" fill="white" fill-opacity="0.3"/>
<path d="M17.4189 29.3749C17.4126 29.6687 17.4001 29.4437 17.4001 28.8749C17.4001 28.3062 17.4126 28.0687 17.4189 28.3437C17.4314 28.6187 17.4314 29.0812 17.4189 29.3749Z" fill="white" fill-opacity="0.3"/>
<path d="M8.3251 11.875C8.31885 9.99997 8.3251 8.43122 8.34385 8.39372V8.38747C8.3626 8.33122 8.6251 8.31872 10.4063 8.33747L8.3751 8.37497L8.34385 15.2812L8.3251 11.875Z" fill="white" fill-opacity="0.6"/>
<path d="M23.6251 8.38122L22.6126 8.36247L21.5938 8.34372L23.6563 8.34997V15.2562L23.6251 8.38122Z" fill="white" fill-opacity="0.6"/>
<path d="M8.3501 23.6625L8.34385 20.5562V17.4437L8.38135 23.6312L10.4126 23.6687L8.3501 23.6625Z" fill="white" fill-opacity="0.6"/>
<path d="M23.6251 23.6375L23.6438 20.525L23.6563 17.4187L23.6751 20.4812C23.6813 22.1625 23.6751 23.575 23.6563 23.6187C23.6376 23.6812 23.3751 23.6937 21.5938 23.6687L23.6251 23.6375Z" fill="white" fill-opacity="0.6"/>
<path d="M12.0315 8.35615C11.7565 8.36865 11.2752 8.36865 10.969 8.35615C10.6627 8.3499 10.8877 8.3374 11.469 8.3374C12.0502 8.3374 12.3065 8.3499 12.0315 8.35615Z" fill="white" fill-opacity="0.4"/>
<path d="M21.094 8.35615C20.819 8.36865 20.3377 8.36865 20.0315 8.35615C19.7252 8.3499 19.944 8.3374 20.5315 8.3374C21.119 8.3374 21.369 8.3499 21.094 8.35615Z" fill="white" fill-opacity="0.4"/>
<path d="M12.0315 23.6687C11.7565 23.6812 11.2752 23.6812 10.969 23.6687C10.6627 23.6624 10.8877 23.6499 11.469 23.6499C12.0502 23.6499 12.3065 23.6624 12.0315 23.6687Z" fill="white" fill-opacity="0.4"/>
<path d="M21.094 23.6687C20.819 23.6812 20.3377 23.6812 20.0315 23.6687C19.7252 23.6624 19.944 23.6499 20.5315 23.6499C21.119 23.6499 21.369 23.6624 21.094 23.6687Z" fill="white" fill-opacity="0.4"/>
<path d="M12.5437 7.31259C12.5374 7.88134 12.5249 7.40009 12.5249 6.25009C12.5249 5.10009 12.5374 4.63759 12.5437 5.21884C12.5562 5.80009 12.5562 6.74384 12.5437 7.31259Z" fill="white" fill-opacity="0.7"/>
<path d="M19.4812 7.31259C19.4749 7.88134 19.4624 7.40009 19.4624 6.25009C19.4624 5.10009 19.4749 4.63759 19.4812 5.21884C19.4937 5.80009 19.4937 6.74384 19.4812 7.31259Z" fill="white" fill-opacity="0.7"/>
<path d="M12.5437 26.8126C12.5374 27.3813 12.5249 26.9001 12.5249 25.7501C12.5249 24.6001 12.5374 24.1313 12.5437 24.7188C12.5562 25.3063 12.5562 26.2438 12.5437 26.8126Z" fill="white" fill-opacity="0.7"/>
<path d="M19.4812 26.8126C19.4749 27.3813 19.4624 26.9001 19.4624 25.7501C19.4624 24.6001 19.4749 24.1313 19.4812 24.7188C19.4937 25.3063 19.4937 26.2438 19.4812 26.8126Z" fill="white" fill-opacity="0.7"/>
<path d="M10.4187 7.31259C10.4124 7.88134 10.3999 7.40009 10.3999 6.25009C10.3999 5.10009 10.4124 4.63759 10.4187 5.21884C10.4312 5.80009 10.4312 6.74384 10.4187 7.31259Z" fill="white"/>
<path d="M21.6062 7.31259C21.5999 7.88134 21.5874 7.40009 21.5874 6.25009C21.5874 5.10009 21.5999 4.63759 21.6062 5.21884C21.6187 5.80009 21.6187 6.74384 21.6062 7.31259Z" fill="white"/>
<path d="M10.4187 26.8126C10.4124 27.3813 10.3999 26.9001 10.3999 25.7501C10.3999 24.6001 10.4124 24.1313 10.4187 24.7188C10.4312 25.3063 10.4312 26.2438 10.4187 26.8126Z" fill="white"/>
<path d="M21.6062 26.8126C21.5999 27.3813 21.5874 26.9001 21.5874 25.7501C21.5874 24.6001 21.5999 24.1313 21.6062 24.7188C21.6187 25.3063 21.6187 26.2438 21.6062 26.8126Z" fill="white"/>
<path d="M14.1565 2.10615C13.8815 2.11865 13.4002 2.11865 13.094 2.10615C12.7877 2.0999 13.0127 2.0874 13.594 2.0874C14.1752 2.0874 14.4315 2.0999 14.1565 2.10615Z" fill="white" fill-opacity="0.4"/>
<path d="M18.969 2.10615C18.694 2.11865 18.2127 2.11865 17.9065 2.10615C17.6002 2.0999 17.819 2.0874 18.4065 2.0874C18.994 2.0874 19.244 2.0999 18.969 2.10615Z" fill="white" fill-opacity="0.4"/>
<path d="M14.1565 29.9187C13.8815 29.9312 13.4002 29.9312 13.094 29.9187C12.7877 29.9124 13.0127 29.8999 13.594 29.8999C14.1752 29.8999 14.4315 29.9124 14.1565 29.9187Z" fill="white" fill-opacity="0.4"/>
<path d="M18.969 29.9187C18.694 29.9312 18.2127 29.9312 17.9065 29.9187C17.6002 29.9124 17.819 29.8999 18.4065 29.8999C18.994 29.8999 19.244 29.9124 18.969 29.9187Z" fill="white" fill-opacity="0.4"/>
<path d="M3.12491 13.2312C2.55616 13.2437 1.61866 13.2437 1.03116 13.2312C0.443655 13.2249 0.912405 13.2124 2.06241 13.2124C3.21241 13.2124 3.69366 13.2249 3.12491 13.2312Z" fill="white" fill-opacity="0.5"/>
<path d="M30.9999 13.2312C30.4312 13.2437 29.4937 13.2437 28.9062 13.2312C28.3187 13.2249 28.7874 13.2124 29.9374 13.2124C31.0874 13.2124 31.5687 13.2249 30.9999 13.2312Z" fill="white" fill-opacity="0.5"/>
<path d="M7.31259 15.2937C6.74384 15.3062 5.80009 15.3062 5.21884 15.2937C4.63759 15.2874 5.10009 15.2749 6.25009 15.2749C7.40009 15.2749 7.88134 15.2874 7.31259 15.2937Z" fill="white" fill-opacity="0.9"/>
<path d="M26.8126 15.2937C26.2438 15.3062 25.3063 15.3062 24.7188 15.2937C24.1313 15.2874 24.6001 15.2749 25.7501 15.2749C26.9001 15.2749 27.3813 15.2874 26.8126 15.2937Z" fill="white" fill-opacity="0.9"/>
<path d="M3.12491 15.2937C2.55616 15.3062 1.61866 15.3062 1.03116 15.2937C0.443655 15.2874 0.912405 15.2749 2.06241 15.2749C3.21241 15.2749 3.69366 15.2874 3.12491 15.2937Z" fill="white" fill-opacity="0.1"/>
<path d="M30.9999 15.2937C30.4312 15.3062 29.4937 15.3062 28.9062 15.2937C28.3187 15.2874 28.7874 15.2749 29.9374 15.2749C31.0874 15.2749 31.5687 15.2874 30.9999 15.2937Z" fill="white" fill-opacity="0.1"/>
</svg>
