<svg width="178" height="32" viewBox="0 0 178 32" fill="none" xmlns="http://www.w3.org/2000/svg">
<path d="M52.3389 11.7577H47.0611V25.4135H43.2534V11.7577H37.9998V8.06238H52.3389V11.7577Z" fill="white"/>
<path d="M53.6905 17.8758H58.4863C58.4542 17.3211 58.2373 16.8398 57.8356 16.432C57.45 16.024 56.8636 15.8201 56.0764 15.8201C55.3694 15.8201 54.8071 16.0322 54.3894 16.4564C53.9716 16.8806 53.7387 17.3537 53.6905 17.8758ZM58.7514 21.0328L61.812 21.9138C61.5068 23.0395 60.8722 23.9695 59.9082 24.7037C58.9441 25.4215 57.7392 25.7805 56.2932 25.7805C54.5581 25.7805 53.08 25.1931 51.859 24.0185C50.654 22.8437 50.0515 21.2693 50.0515 19.2952C50.0515 17.4027 50.6379 15.8609 51.8108 14.6699C52.9996 13.4789 54.4055 12.8834 56.0282 12.8834C57.8918 12.8834 59.3539 13.4381 60.4142 14.5475C61.4907 15.6406 62.0289 17.1661 62.0289 19.1239C62.0289 19.7439 62.0048 20.1273 61.9566 20.2741H53.6182C53.6503 20.943 53.9315 21.506 54.4617 21.9628C54.9919 22.4033 55.6184 22.6235 56.3414 22.6235C57.5786 22.6235 58.3819 22.0933 58.7514 21.0328Z" fill="white"/>
<path d="M68.6946 16.3096C67.9074 16.3096 67.2487 16.5787 66.7185 17.1172C66.2043 17.6556 65.9473 18.3979 65.9473 19.3441C65.9473 20.2741 66.2124 21.0083 66.7426 21.5467C67.2889 22.0851 67.9556 22.3543 68.7428 22.3543C69.4015 22.3543 69.9398 22.183 70.3575 21.8404C70.7913 21.4815 71.0805 21.0491 71.225 20.5434L74.4544 21.5467C74.1652 22.7051 73.5145 23.7003 72.5024 24.5324C71.5063 25.3645 70.253 25.7805 68.7428 25.7805C66.9434 25.7805 65.4171 25.1768 64.164 23.9695C62.9268 22.7458 62.3083 21.2041 62.3083 19.3441C62.3083 17.4679 62.9108 15.9262 64.1158 14.7188C65.3368 13.4952 66.839 12.8834 68.6223 12.8834C70.1808 12.8834 71.4581 13.2913 72.4542 14.107C73.4502 14.9228 74.0929 15.9262 74.3821 17.1172L71.1046 18.1205C70.96 17.5984 70.6869 17.1661 70.2852 16.8235C69.8836 16.4808 69.3533 16.3096 68.6946 16.3096Z" fill="white"/>
<path d="M79.1429 18.2674V25.4134H75.4798V7.69519H79.1429V14.0336C79.8658 13.2994 80.886 12.9324 82.2035 12.9324C83.6976 12.9324 84.8223 13.3892 85.5771 14.3028C86.3487 15.2001 86.7345 16.3585 86.7345 17.7779V25.4134H83.0711V18.4142C83.0711 17.7779 82.9024 17.2722 82.565 16.8969C82.2437 16.5053 81.7616 16.3096 81.119 16.3096C80.5567 16.3096 80.0907 16.4972 79.7213 16.8724C79.3678 17.2313 79.175 17.6963 79.1429 18.2674Z" fill="white"/>
<path d="M94.1024 22.3543C94.857 22.3543 95.4915 22.0933 96.0059 21.5712C96.5356 21.0491 96.8013 20.2986 96.8013 19.3197C96.8013 18.3408 96.5356 17.5984 96.0059 17.0927C95.4915 16.5706 94.857 16.3096 94.1024 16.3096C93.3631 16.3096 92.7286 16.5706 92.198 17.0927C91.6683 17.6148 91.4026 18.3571 91.4026 19.3197C91.4026 20.2823 91.6683 21.0328 92.198 21.5712C92.7286 22.0933 93.3631 22.3543 94.1024 22.3543ZM94.1024 12.8834C95.9173 12.8834 97.4273 13.487 98.6324 14.6944C99.8537 15.9017 100.464 17.4434 100.464 19.3197C100.464 21.1959 99.8537 22.7458 98.6324 23.9695C97.4273 25.1768 95.9173 25.7805 94.1024 25.7805C92.3028 25.7805 90.7919 25.1687 89.5715 23.945C88.3502 22.7213 87.7395 21.1796 87.7395 19.3197C87.7395 17.4598 88.3502 15.9262 89.5715 14.7188C90.7919 13.4952 92.3028 12.8834 94.1024 12.8834Z" fill="white"/>
<path d="M105.281 30.0632H101.618V13.2505H105.16V14.4986C105.433 14.0745 105.883 13.7155 106.51 13.4219C107.152 13.1119 107.875 12.9569 108.678 12.9569C110.381 12.9569 111.731 13.5524 112.727 14.7434C113.739 15.918 114.245 17.4354 114.245 19.2952C114.245 21.1552 113.707 22.6888 112.631 23.8962C111.57 25.0872 110.205 25.6826 108.534 25.6826C107.023 25.6826 105.939 25.2747 105.281 24.459V30.0632ZM109.859 21.5712C110.39 21.0328 110.655 20.2823 110.655 19.3197C110.655 18.3571 110.39 17.6148 109.859 17.0928C109.345 16.5707 108.703 16.3096 107.931 16.3096C107.176 16.3096 106.533 16.5707 106.004 17.0928C105.489 17.6148 105.232 18.3571 105.232 19.3197C105.232 20.2823 105.489 21.0328 106.004 21.5712C106.533 22.0933 107.176 22.3544 107.931 22.3544C108.703 22.3544 109.345 22.0933 109.859 21.5712Z" fill="white"/>
<path d="M118.175 17.8758H122.971C122.939 17.3211 122.722 16.8398 122.32 16.432C121.935 16.024 121.348 15.8201 120.561 15.8201C119.854 15.8201 119.292 16.0322 118.874 16.4564C118.456 16.8806 118.224 17.3537 118.175 17.8758ZM123.236 21.0328L126.297 21.9138C125.992 23.0395 125.357 23.9695 124.393 24.7037C123.429 25.4215 122.224 25.7805 120.778 25.7805C119.043 25.7805 117.564 25.1931 116.344 24.0185C115.139 22.8437 114.536 21.2693 114.536 19.2952C114.536 17.4027 115.123 15.8609 116.295 14.6699C117.484 13.4789 118.89 12.8834 120.513 12.8834C122.376 12.8834 123.839 13.4381 124.899 14.5475C125.975 15.6406 126.514 17.1661 126.514 19.1239C126.514 19.7439 126.49 20.1273 126.441 20.2741H118.103C118.135 20.943 118.416 21.506 118.947 21.9628C119.476 22.4033 120.103 22.6235 120.826 22.6235C122.063 22.6235 122.867 22.0933 123.236 21.0328Z" fill="white"/>
<path d="M139.446 7.69519V23.2353C139.446 23.9695 139.477 24.6955 139.542 25.4134H136.023C135.959 25.0218 135.926 24.6303 135.926 24.2387C135.638 24.6629 135.203 25.0137 134.625 25.291C134.063 25.552 133.428 25.6825 132.722 25.6825C131.018 25.6825 129.604 25.0871 128.48 23.8961C127.355 22.6887 126.793 21.1552 126.793 19.2952C126.793 17.4679 127.339 15.9588 128.432 14.7678C129.524 13.5604 130.914 12.9568 132.601 12.9568C134.24 12.9568 135.316 13.3728 135.83 14.2049V7.69519H139.446ZM131.252 17.0927C130.737 17.6147 130.48 18.3571 130.48 19.3196C130.48 20.2822 130.737 21.0328 131.252 21.5712C131.781 22.0933 132.424 22.3543 133.179 22.3543C133.934 22.3543 134.569 22.0933 135.083 21.5712C135.613 21.0328 135.879 20.2822 135.879 19.3196C135.879 18.3571 135.613 17.6147 135.083 17.0927C134.569 16.5706 133.934 16.3096 133.179 16.3096C132.424 16.3096 131.781 16.5706 131.252 17.0927Z" fill="white"/>
<path d="M145.205 25.4135H141.542V13.2506H145.205V25.4135ZM141.855 11.0725C141.437 10.6483 141.228 10.1344 141.228 9.53068C141.228 8.9271 141.437 8.41314 141.855 7.98895C142.272 7.56476 142.77 7.35266 143.349 7.35266C143.943 7.35266 144.449 7.56476 144.867 7.98895C145.301 8.41314 145.518 8.9271 145.518 9.53068C145.518 10.1344 145.301 10.6483 144.867 11.0725C144.449 11.4967 143.943 11.7088 143.349 11.7088C142.77 11.7088 142.272 11.4967 141.855 11.0725Z" fill="white"/>
<path d="M146.485 22.0606C146.485 21.0328 146.815 20.2088 147.473 19.5889C148.132 18.9526 148.983 18.5529 150.028 18.3898L152.847 17.9492C153.426 17.8676 153.715 17.5903 153.715 17.1172C153.715 16.7419 153.554 16.432 153.233 16.1872C152.928 15.9262 152.503 15.7956 151.956 15.7956C151.345 15.7956 150.855 15.9751 150.486 16.3341C150.132 16.6766 149.94 17.0927 149.908 17.5821L146.727 16.9214C146.807 15.9098 147.297 14.9881 148.196 14.156C149.112 13.3076 150.373 12.8834 151.98 12.8834C153.795 12.8834 155.129 13.3239 155.981 14.2049C156.848 15.0859 157.282 16.2117 157.282 17.5821V23.529C157.282 24.2957 157.33 24.9239 157.426 25.4134H154.125C154.045 25.0871 154.004 24.6303 154.004 24.0429C153.313 25.185 152.189 25.756 150.631 25.756C149.362 25.756 148.349 25.3971 147.594 24.6792C146.855 23.945 146.485 23.0721 146.485 22.0606ZM151.522 23.064C152.149 23.064 152.671 22.8764 153.089 22.5012C153.507 22.1259 153.715 21.506 153.715 20.6412V20.1028L151.45 20.4699C150.551 20.6167 150.1 21.0654 150.1 21.8159C150.1 22.1585 150.212 22.4522 150.437 22.6969C150.678 22.9416 151.04 23.064 151.522 23.064Z" fill="white"/>
<path d="M20.6707 18.2172C20.6708 18.4284 20.7257 18.6359 20.8297 18.8188C20.9337 19.0017 21.0833 19.1535 21.2634 19.2591L24.9944 21.4462C25.1745 21.5516 25.3787 21.6071 25.5865 21.607C25.7943 21.6069 25.9985 21.5512 26.1783 21.4457C26.3583 21.3401 26.5078 21.1883 26.6116 21.0055C26.7155 20.8227 26.7702 20.6153 26.7702 20.4043V8.87722C26.7702 8.66637 26.7156 8.45912 26.6118 8.27645C26.5079 8.09378 26.3586 7.9421 26.1787 7.83663L16.3482 2.07628C16.1682 1.97092 15.9641 1.91548 15.7564 1.91553C15.5488 1.91557 15.3447 1.9711 15.1647 2.07652C14.9849 2.18196 14.8354 2.33358 14.7315 2.51618C14.6275 2.69879 14.5727 2.90596 14.5725 3.11689V7.49231C14.5726 7.70337 14.6273 7.91069 14.7311 8.09354C14.8349 8.27638 14.9841 8.42834 15.164 8.53421L20.078 11.4125C20.258 11.5177 20.4075 11.6694 20.5113 11.8521C20.6152 12.0348 20.6697 12.2422 20.6695 12.4531L20.6707 18.2172Z" fill="#82A5FF"/>
<path d="M13.3857 16.7252V22.4893C13.3856 22.7005 13.4402 22.9079 13.544 23.0908C13.6478 23.2737 13.7972 23.4256 13.9772 23.5312L17.7082 25.7183C17.8882 25.8237 18.0925 25.8792 18.3003 25.8791C18.5081 25.8789 18.7122 25.8233 18.8922 25.7177C19.0721 25.6122 19.2215 25.4603 19.3254 25.2776C19.4292 25.0948 19.4839 24.8874 19.4839 24.6764V13.1493C19.4838 12.9381 19.429 12.7306 19.3249 12.5478C19.2209 12.3649 19.0713 12.213 18.8912 12.1074L9.06198 6.34454C8.88203 6.23877 8.67788 6.18301 8.47004 6.18286C8.26218 6.18271 8.05795 6.23818 7.87791 6.34368C7.69788 6.44919 7.5484 6.601 7.44453 6.78383C7.34065 6.96667 7.28605 7.17407 7.28623 7.38515V11.7606C7.28592 11.9715 7.34045 12.1789 7.44431 12.3616C7.54817 12.5443 7.69766 12.696 7.87771 12.8012L12.7942 15.6833C12.9741 15.7891 13.1235 15.941 13.2273 16.1239C13.3311 16.3067 13.3857 16.5141 13.3857 16.7252Z" fill="#0077CC"/>
<path d="M11.6062 16.3795L1.77572 10.6205C1.59568 10.5151 1.39149 10.4596 1.18367 10.4597C0.975849 10.4598 0.771717 10.5154 0.591774 10.621C0.411832 10.7266 0.26242 10.8784 0.158544 11.0612C0.0546688 11.244 -1.08974e-05 11.4513 2.7763e-08 11.6623V23.1907C-4.49642e-05 23.4016 0.0545952 23.6089 0.158425 23.7915C0.262255 23.9742 0.411614 24.1259 0.591487 24.2313L6.69098 27.8021L10.422 29.9891C10.6019 30.0949 10.806 30.1507 11.0139 30.1508C11.2218 30.151 11.426 30.0955 11.606 29.99C11.7861 29.8845 11.9355 29.7327 12.0394 29.5499C12.1433 29.367 12.1979 29.1596 12.1977 28.9485V17.4214C12.1976 17.2104 12.1429 17.003 12.0391 16.8202C11.9353 16.6374 11.786 16.4854 11.6062 16.3795Z" fill="#004ED6"/>
</svg>
